<svg id="Capa_1" data-name="Capa 1" xmlns="http://www.w3.org/2000/svg" viewBox="0 0 618.35 306.7"><defs><style>.cls-1{fill:#d470d4;}</style></defs><path class="cls-1" d="M197.21,231.38a15.07,15.07,0,0,1,2.71-4.25l44.13-58.06a8.91,8.91,0,0,1,5.19-3.38q8.94-2.15,17.88-4.29a6.81,6.81,0,0,1,3.69.15c1.25.38,2.71.43,3.72,1.14s1.34,2.19,2,3.33c.86,1.56,1.69,3.13,2.53,4.7-.32.25-.57.07-.81,0-2.3-.61-4.6-1.21-6.89-1.85-.49-.14-.72-.09-.92.44a12.53,12.53,0,0,1-1.06,2.06,3.38,3.38,0,0,1-3.67,1.62,3.22,3.22,0,0,1-2.72-2.72c-.12-.65-.35-.66-.87-.53q-5.46,1.33-10.94,2.62a2.9,2.9,0,0,0-1.73,1.15q-14.49,19.1-29,38.16l-12,15.78c-.19.25-.37.51-.59.81a1.48,1.48,0,0,0,1.09-.24q15-5.85,29.91-11.72a6,6,0,0,1,5.84.61q10.69,6.89,21.44,13.69a1.11,1.11,0,0,0,.64.29c1.18-3.1,2.32-4.09,4.34-3.73a3.5,3.5,0,0,1,2.56,1.9,4.72,4.72,0,0,1,.09,3.26l5.79-2.73c9.12-4.32,18.24-8.61,27.33-13a6.54,6.54,0,0,1,6.21,0c10.09,5,20.21,10,30.32,15a2.19,2.19,0,0,0,1,.41c-.13-3.08.62-4.44,2.66-4.88a3.42,3.42,0,0,1,2.18.26,3.51,3.51,0,0,1,1.57,1.41,16.37,16.37,0,0,1,.73,2.18l5.78-3.62c5.72-3.6,11.44-7.18,17.14-10.81a6.08,6.08,0,0,1,5.93-.56q14.44,5.79,28.93,11.52a3.2,3.2,0,0,0,1.18.27c-.44-.61-.87-1.22-1.31-1.82Q389.6,199.68,370,173.36a3.09,3.09,0,0,0-2-1.27c-3.87-.81-7.74-1.66-11.6-2.52-.62-.14-.94-.18-1,.64a3.3,3.3,0,0,1-2.58,2.76,3.43,3.43,0,0,1-3.69-1.37,12.42,12.42,0,0,1-1.15-2.12c-.22-.56-.45-.68-1-.52-2.26.63-4.54,1.21-6.82,1.8-.25.07-.5.12-.92.22.35-.69.61-1.23.9-1.77,1.08-2,2.17-4,3.23-6a1.42,1.42,0,0,1,1-.78c1.38-.34,2.76-.72,4.14-1.08a5.77,5.77,0,0,1,2.74,0c6.36,1.39,12.73,2.76,19.09,4.17a8.53,8.53,0,0,1,5.07,3.42q9.67,13,19.37,26,12.6,16.89,25.2,33.76a10.43,10.43,0,0,1,1.2,2.38v2c-1.38,4.2-5,4.82-8.43,3.43-11.2-4.6-22.48-9-33.72-13.46a1.69,1.69,0,0,0-1.72.14c-5.52,3.52-11,7-16.61,10.46-4,2.46-7.77,5.26-12,7.29H346.5c-.68-.3-1.37-.57-2-.9q-16.83-8.31-33.64-16.64a1.74,1.74,0,0,0-1.74,0Q302,226.67,294.91,230c-7.68,3.61-15.3,7.38-23.06,10.84h-2.14c-.73-.4-1.51-.65-2.22-1.1q-12.81-8.2-25.63-16.37a1.44,1.44,0,0,0-1.47-.22c-6.77,2.69-13.55,5.34-20.33,8l-15.36,6a5.32,5.32,0,0,1-5.88-1,8.28,8.28,0,0,1-1.61-2.62Z"/><path class="cls-1" d="M312.39,65.85c2,.36,4.06.5,6.07.88a47.1,47.1,0,0,1,37.54,40A45.11,45.11,0,0,1,352.21,132c-2.14,4.54-4.7,8.89-7.08,13.31q-16.29,30.15-32.55,60.32c-1.34,2.49-3.71,2.79-5.27,1.82a4.32,4.32,0,0,1-1.48-1.75L289.3,175c-7.58-14-15.24-28-22.7-42.1A41.72,41.72,0,0,1,262,114a46.9,46.9,0,0,1,39.48-47.56c1.49-.24,3-.41,4.5-.61Zm-3.22,131.23.57-1q17.43-32.27,34.87-64.52a38.32,38.32,0,0,0,4.14-25.75,40.15,40.15,0,0,0-60.4-27.18c-11.81,7.11-18.19,17.87-19.29,31.62A37,37,0,0,0,273,130c1.74,3.45,3.66,6.81,5.5,10.21l26.63,49.3C306.41,192,307.74,194.45,309.17,197.08Z"/><path class="cls-1" d="M244.8,205.89a3.49,3.49,0,0,1,3.39,4.79,14.88,14.88,0,0,1-1.14,2.12,3.49,3.49,0,0,1-4.56,1.14,3.42,3.42,0,0,1-1.53-4.5,18.53,18.53,0,0,1,1.06-2A3.35,3.35,0,0,1,244.8,205.89Z"/><path class="cls-1" d="M373.47,205.89c.08,0,.29,0,.5.05,2.2.05,4.44,4.45,3.52,6.22a3.61,3.61,0,0,1-2.93,2.17,3.3,3.3,0,0,1-3.27-1.56,14.21,14.21,0,0,1-1.1-2A3.47,3.47,0,0,1,373.47,205.89Z"/><path class="cls-1" d="M281.22,181.55a3.43,3.43,0,0,1,3.36,4,18.4,18.4,0,0,1-.47,2.08,3.51,3.51,0,0,1-4.19,2.42,3.47,3.47,0,0,1-2.6-4.07c.12-.64.27-1.28.45-1.91A3.44,3.44,0,0,1,281.22,181.55Z"/><path class="cls-1" d="M337.19,181.56h.27c2.72.31,3.46,2.33,3.6,5.3a3.33,3.33,0,0,1-3.67,3.29,3.4,3.4,0,0,1-2.17-.91,6.23,6.23,0,0,1-1.24-5.56A3.41,3.41,0,0,1,337.19,181.56Z"/><path class="cls-1" d="M259.61,178.37a3.49,3.49,0,0,1,3.35,4.89,15.4,15.4,0,0,1-1,1.88,3.53,3.53,0,0,1-4.75,1.24,3.47,3.47,0,0,1-1.35-4.64,19,19,0,0,1,.94-1.71A3.37,3.37,0,0,1,259.61,178.37Z"/><path class="cls-1" d="M341.1,205.35a3,3,0,0,1-2.46-1.06,5.83,5.83,0,0,1-1.19-5.17,3.31,3.31,0,0,1,3.2-2.38,3.39,3.39,0,0,1,3.34,2.2,13.74,13.74,0,0,1,.63,2.68A3.44,3.44,0,0,1,341.1,205.35Z"/><path class="cls-1" d="M362.9,183.34a3.5,3.5,0,0,1-6.34,2A13,13,0,0,1,355.3,183a3.32,3.32,0,0,1,1-3.85,3.5,3.5,0,0,1,4.08-.29A7.13,7.13,0,0,1,362.9,183.34Z"/><path class="cls-1" d="M277.65,196.74a3.45,3.45,0,0,1,3.4,4,18.4,18.4,0,0,1-.47,2.08,3.51,3.51,0,0,1-4.17,2.46,3.45,3.45,0,0,1-2.63-4,19.32,19.32,0,0,1,.46-2A3.47,3.47,0,0,1,277.65,196.74Z"/><path class="cls-1" d="M273.62,220.54a3.42,3.42,0,0,1-3.42-3.72,9.84,9.84,0,0,1,.61-2.68,3.49,3.49,0,0,1,6.7,1.83,18.48,18.48,0,0,1-.49,2.08A3.42,3.42,0,0,1,273.62,220.54Z"/><path class="cls-1" d="M344.63,220.54a3.42,3.42,0,0,1-3.31-2.5,19.62,19.62,0,0,1-.47-2,3.5,3.5,0,0,1,6.69-1.92,9.49,9.49,0,0,1,.61,2.68A3.43,3.43,0,0,1,344.63,220.54Z"/><path class="cls-1" d="M255.86,196a6.77,6.77,0,0,1-2.41,4.06,3.48,3.48,0,0,1-5.12-4.26,14.38,14.38,0,0,1,1.15-2.11,3.47,3.47,0,0,1,3.92-1.36A3.55,3.55,0,0,1,255.86,196Z"/><path class="cls-1" d="M370.29,196.78a3.56,3.56,0,0,1-2.41,3.64,3.44,3.44,0,0,1-3.93-1.31,14,14,0,0,1-1.19-2.18,3.47,3.47,0,0,1,5.07-4.25A6.64,6.64,0,0,1,370.29,196.78Z"/><path class="cls-1" d="M309.12,128.22a19.06,19.06,0,1,1,19.3-18.89A19.15,19.15,0,0,1,309.12,128.22Zm0-6.94a12.11,12.11,0,1,0-12.17-12.23A12.21,12.21,0,0,0,309.1,121.28Z"/></svg>