<svg id="Capa_1" data-name="Capa 1" xmlns="http://www.w3.org/2000/svg" viewBox="0 0 618.35 306.7"><defs><style>.cls-1{fill:#fff;}</style></defs><path class="cls-1" d="M224.67,155.72v-5.81c0-.17.06-.34.08-.51.14-1.93.24-3.87.44-5.79a79.9,79.9,0,0,1,5.16-21A84.56,84.56,0,0,1,304.48,69l2.93-.16h3.52a1.57,1.57,0,0,0,.3.05A84.44,84.44,0,0,1,323,70a84.39,84.39,0,0,1,70.52,78.93l.15,2.84v3.44c0,.12-.05.25-.05.38a84.61,84.61,0,0,1-1,11.12A83,83,0,0,1,385,190.83a84.45,84.45,0,0,1-70.79,46.87l-2.18.15h-5.81c-.22,0-.43-.07-.65-.08a83.21,83.21,0,0,1-44.22-14.71A84.74,84.74,0,0,1,224.83,158C224.78,157.24,224.72,156.48,224.67,155.72Zm142.59,43.14c21.29-26.37,23-69.67-6.87-98.64A73.5,73.5,0,0,0,256.2,102c-27.77,28.68-26.39,70.91-5.07,97a.13.13,0,0,0,.07-.05c.06-.1.11-.21.16-.31a48.75,48.75,0,0,1,11.69-16.29,47.16,47.16,0,0,1,28.86-12.46c4.48-.34,9-.38,13.49-.38,6.47,0,12.94.17,19.4.26a41.82,41.82,0,0,1,17.12,3.92,51.17,51.17,0,0,1,22.77,20.43C365.62,195.63,366.4,197.26,367.26,198.86Z"/><path class="cls-1" d="M277.25,132.38a31.92,31.92,0,1,1,31.53,31.77A32.05,32.05,0,0,1,277.25,132.38Z"/></svg>