<svg id="Capa_1" data-name="Capa 1" xmlns="http://www.w3.org/2000/svg" viewBox="0 0 618.35 306.7"><defs><style>.cls-1{fill:#1c1c1c;}</style></defs><path class="cls-1" d="M377.28,130c-8.51-5.68-3.93-13.59-5.16-20.43l1.38-.93c6.43,5.72,13.51,10.89,19,17.38,3,3.57,4.68,9.35,4.77,14.16.45,25.74.31,51.49.18,77.23-.06,12.47-8.08,20.36-20.56,20.38q-67.77.09-135.53,0c-12.5,0-20.5-7.87-20.57-20.38-.14-25.54,0-51.09-.08-76.63a23.75,23.75,0,0,1,8.86-19.25c5.12-4.28,10.23-8.56,16-12.52-.77,7.08,4.26,15-4.64,20.79l68.77,54.54Zm-130,93.77H370.59l-39-39.38c-5.05,4-10.56,8.24-15.81,12.73-4.18,3.58-7.95,3.57-12.16.06-5.59-4.66-11.39-9.06-16.63-13.2Zm-12.57-10.85,39.39-39.28-39.39-31.16Zm148.77,1v-71.2l-39.56,31.81Z"/><path class="cls-1" d="M265.65,139.57c-8.42-4.64-13.45-9-12.72-18.84,1.07-14.38.24-28.9.29-43.36,0-6.72,1.76-8.49,8.44-8.5q47.57,0,95.14,0c6.36,0,8.25,1.84,8.27,8,.06,16.64,0,33.28.05,49.92,0,7.66-7.55,8.12-11.79,12.29V81.43H265.65Z"/><path class="cls-1" d="M313.74,134.46c-3.32,4.87-8,6.55-13.28,4.11-5.63-2.6-6.66-8-6.43-13.62.4-9.58,6.13-17.35,13.37-16.76,5.07.42,10.08.84,15.79-.2-.43,6.65-1.06,12.49-1.07,18.33,0,2.24,1.37,4.49,2.12,6.74,1.95-1.91,4.8-3.48,5.68-5.79,3.27-8.69.4-18.24-6.25-23-6.92-5-19.07-4.68-26.34.63A25.18,25.18,0,0,0,288.49,133c3.06,9.06,10.91,13.79,22.74,13.24,4.1-.19,8.15-1.24,12.56-1.94,1.95,4.21.5,7-4.32,7.32-6.48.39-13.17,1.15-19.45,0-13.29-2.46-21-13.13-20.84-27.11.13-14.34,9.58-27,23.13-29.09a48.7,48.7,0,0,1,20.95,1.27c14.21,4.39,20.27,21.14,13.38,34C331.49,140.39,320.62,142.33,313.74,134.46Zm.51-13c.1-5.57-2.64-8.54-6.53-7.09-3.47,1.29-6.68,8.52-5.17,13.42.66,2.11,3.43,5.23,5,5.1,5.47-.44,6-5.3,6.55-9.67C314.2,122.69,314.21,122.1,314.25,121.51Z"/></svg>