<svg id="Capa_1" data-name="Capa 1" xmlns="http://www.w3.org/2000/svg" viewBox="0 0 618.35 306.7"><defs><style>.cls-1{fill:#fff;}</style></defs><path class="cls-1" d="M322.1,237.31v-60h19.57c1.66-8.12,3.29-16.15,5-24.33H322.08V149.3c0-4.05,0-8.09,0-12.14a20,20,0,0,1,.41-4c1.2-5.36,4.9-8.52,10.44-8.87,3.95-.24,7.91-.33,11.87-.49.48,0,1,0,1.55,0,.22-7.06.43-14,.65-21.06-1.95-.22-3.76-.55-5.57-.61-6.08-.19-12.18-.71-18.23-.34-14.19.88-24.45,10.49-26.48,24.62a126.78,126.78,0,0,0-.73,13.8c-.12,3.8-.08,7.6-.12,11.4,0,.4,0,.8-.07,1.31H274.39V177h1.89l18.26-.06c1.84,0,1.83,0,1.83,1.79l0,53.56v4.92c-.54,0-.86.09-1.18.09-9.52,0-19,.07-28.56-.08-5.63-.09-11.29-.45-16.71-2.19A34.94,34.94,0,0,1,230,219.45a39,39,0,0,1-5.41-19.24c-.32-9.22-.35-18.46-.36-27.69q0-31.87.16-63.74c0-6.87,1-13.62,4.14-19.87,5.62-11.22,14.87-17.56,27.1-19.49a94.69,94.69,0,0,1,14.28-1q37.95-.14,75.88,0c6.41,0,12.83.08,19.12,1.63,15,3.68,25.17,15,27.36,30.29.93,6.43.72,12.88.74,19.33q.06,37.39,0,74.78c0,6.14-.34,12.29-2.47,18.12-4.94,13.55-14.64,21.47-28.86,23.79-8.48,1.39-17,.94-25.57,1-4.17,0-8.34,0-12.5,0Z"/></svg>