<svg id="Capa_1" data-name="Capa 1" xmlns="http://www.w3.org/2000/svg" viewBox="0 0 618.35 306.7"><defs><style>.cls-1{fill:#d470d4;}</style></defs><path class="cls-1" d="M309.23,68.8c11.47.22,22.94.38,34.4.69,8.19.22,16.19,1.57,23.65,5.15A42.61,42.61,0,0,1,390,100.43a67.22,67.22,0,0,1,3.13,19c.76,19.21.49,38.42.32,57.63a181.68,181.68,0,0,1-1,18.22c-1.51,13.49-7.12,24.86-18.32,33a47.36,47.36,0,0,1-20.4,8.13c-7.34,1.25-14.78,1.35-22.2,1.4q-22.9.15-45.81,0a132.53,132.53,0,0,1-21.15-1.36c-10.92-1.85-20.4-6.38-27.81-14.85-5.62-6.44-8.78-14-10.39-22.29a107.85,107.85,0,0,1-1.53-20q-.17-24.65-.06-49.3a131.45,131.45,0,0,1,1.36-21.15c2.11-12.62,7.84-23.08,18.43-30.59a47.67,47.67,0,0,1,21.23-8C274.35,69.08,283,69.13,291.6,69c5.87-.07,11.75,0,17.63,0ZM309,222.94v-.47c9.25,0,18.51.09,27.76,0a79.81,79.81,0,0,0,17.3-1.62c8.24-1.95,14.77-6.28,19.07-13.68a31,31,0,0,0,4.13-13.3c.54-7.08.95-14.19,1-21.28.12-14.46,0-28.92-.09-43.38-.06-6.61-.11-13.24-1.5-19.76-2.14-10-7.54-17.45-17.12-21.54a41.91,41.91,0,0,0-14.07-3c-15.88-1-31.79-.61-47.69-.61-7.18,0-14.35.22-21.53.42a55.37,55.37,0,0,0-13.66,1.85c-8.15,2.28-14.34,7-18.2,14.6a39,39,0,0,0-3.88,16.31c-.32,8.19-.6,16.39-.59,24.58q0,22.22.44,44.43a63.77,63.77,0,0,0,1.45,11.91c1.88,8.89,6.8,15.67,15,19.83A37.32,37.32,0,0,0,272.68,222C284.78,222.43,296.88,222.65,309,222.94Z"/><path class="cls-1" d="M352.51,153.6a43.4,43.4,0,1,1-43.26-43.53A43.36,43.36,0,0,1,352.51,153.6Zm-43.43,28A28.13,28.13,0,1,0,281,153.44,28.1,28.1,0,0,0,309.08,181.58Z"/><path class="cls-1" d="M344.05,108.34a10.16,10.16,0,1,1,10.08,10.18A10.17,10.17,0,0,1,344.05,108.34Z"/></svg>