<svg id="Capa_1" data-name="Capa 1" xmlns="http://www.w3.org/2000/svg" viewBox="0 0 618.35 306.7"><defs><style>.cls-1,.cls-2{fill:#d470d4;}.cls-2{font-size:118.37px;font-family:Montserrat-ExtraBold, Montserrat;font-weight:800;}</style></defs><path class="cls-1" d="M45.55,43.6V231.37H99.82a49,49,0,0,1-23.21-5.49,41,41,0,0,1-16.23-15.29,44.65,44.65,0,0,1,0-44.4A41,41,0,0,1,76.61,150.9a48.92,48.92,0,0,1,23.32-5.49,50,50,0,0,1,20.43,4A39.25,39.25,0,0,1,135.47,161l-14.88,13.46q-8-9.69-19.48-9.68a24,24,0,0,0-12,2.95A20.47,20.47,0,0,0,81,176.05a27.79,27.79,0,0,0,0,24.68,20.41,20.41,0,0,0,8.15,8.32,24,24,0,0,0,12,2.95q11.46,0,19.48-9.68l14.88,13.46a39.25,39.25,0,0,1-15.11,11.57,50.06,50.06,0,0,1-20.36,4h46.79V43.6Z"/><text class="cls-2" transform="translate(146.78 231.37)">heer</text><text class="cls-2" transform="translate(434.42 231.37)">s</text><text class="cls-2" transform="translate(497.99 231.37)">y</text></svg>