<svg id="Capa_1" data-name="Capa 1" xmlns="http://www.w3.org/2000/svg" viewBox="0 0 618.35 306.7"><defs><style>.cls-1{fill:#fff;}</style></defs><path class="cls-1" d="M258.56,59.47V247.23h54.27a49,49,0,0,1-23.21-5.49,41.1,41.1,0,0,1-16.24-15.29,44.72,44.72,0,0,1,0-44.4,41.1,41.1,0,0,1,16.24-15.29,48.89,48.89,0,0,1,23.32-5.49,50,50,0,0,1,20.42,4,39.28,39.28,0,0,1,15.11,11.57L333.6,190.32q-8-9.67-19.48-9.68a24,24,0,0,0-12,3,20.45,20.45,0,0,0-8.14,8.32,27.7,27.7,0,0,0,0,24.68,20.39,20.39,0,0,0,8.14,8.32,24,24,0,0,0,12,3q11.44,0,19.48-9.69l14.87,13.46a39.3,39.3,0,0,1-15.11,11.58,50.19,50.19,0,0,1-20.36,4h46.79V59.47Z"/></svg>